<?xml version="1.0" standalone="no"?><!DOCTYPE svg PUBLIC "-//W3C//DTD SVG 1.1//EN" "http://www.w3.org/Graphics/SVG/1.1/DTD/svg11.dtd"><svg class="icon" style="" viewBox="0 0 1000 1000" version="1.1" xmlns="http://www.w3.org/2000/svg" p-id="2186" xmlns:xlink="http://www.w3.org/1999/xlink" width="200" height="200"><defs><style type="text/css"><![CDATA[

]]></style></defs><path d="M668.225 328.7491c10.0166 0 19.9273 0.7355 29.7581 1.8298C671.2451 206.0803 538.1347 113.579 386.1984 113.579c-169.864 0-309.0085 115.7785-309.0085 262.7968 0 84.8625 46.2926 154.5502 123.6504 208.6016l-30.9063 92.954 108.0233-54.1683c38.6534 7.6508 69.6657 15.5165 108.2402 15.5165 9.6968 0 19.3117-0.4787 28.8467-1.2282-6.0372-20.659-9.5349-42.2973-9.5349-64.7481C405.5101 438.3058 521.4414 328.7491 668.225 328.7491zM502.0757 244.9699c23.2672 0 38.6804 15.3066 38.6804 38.5589 0 23.1593-15.4132 38.6788-38.6804 38.6788-23.1603 0-46.3995-15.5195-46.3995-38.6788C455.6762 260.2755 478.9154 244.9699 502.0757 244.9699zM285.8122 322.2065c-23.1573 0-46.5314-15.5195-46.5314-38.6788 0-23.2522 23.3731-38.5589 46.5314-38.5589 23.1593 0 38.5735 15.3066 38.5735 38.5589C324.3857 306.6871 308.9715 322.2065 285.8122 322.2065zM950.2536 569.5908c0-123.5392-123.6264-224.239-262.4741-224.239-147.0245 0-262.8208 100.6997-262.8208 224.239 0 123.7521 115.7974 224.239 262.8208 224.239 30.7724 0 61.8107-7.7597 92.717-15.5055l84.7571 46.4115-23.2392-77.2206C904.04 700.9827 950.2536 639.2786 950.2536 569.5908zM602.5658 530.926c-15.3862 0-30.9063-15.3066-30.9063-30.919 0-15.3966 15.5201-30.902 30.9063-30.902 23.3731 0 38.6804 15.5055 38.6804 30.902C641.2462 515.6194 625.9389 530.926 602.5658 530.926zM772.5367 530.926c-15.2803 0-30.6935-15.3066-30.6935-30.919 0-15.3966 15.4132-30.902 30.6935-30.902 23.1593 0 38.6774 15.5055 38.6774 30.902C811.2151 515.6194 795.6969 530.926 772.5367 530.926z" p-id="2187"></path></svg>